<svg width="49" height="48" viewBox="0 0 49 48" fill="none" xmlns="http://www.w3.org/2000/svg">
<path d="M16.668 4V10M32.668 4V10M7.66797 18.18H41.668M44.668 38C44.668 39.5 44.248 40.92 43.508 42.12C42.8029 43.305 41.8014 44.2859 40.602 44.9663C39.4027 45.6466 38.0468 46.0029 36.668 46C34.648 46 32.808 45.26 31.408 44C30.788 43.48 30.248 42.84 29.828 42.12C29.0666 40.8808 28.665 39.4543 28.668 38C28.668 33.58 32.248 30 36.668 30C39.068 30 41.208 31.06 42.668 32.72C43.9542 34.1784 44.6652 36.0554 44.668 38Z" stroke="#B9C7A4" stroke-width="2" stroke-miterlimit="10" stroke-linecap="round" stroke-linejoin="round"/>
<path d="M33.548 38L35.528 39.98L39.788 36.04" stroke="#B9C7A4" stroke-width="2" stroke-linecap="round" stroke-linejoin="round"/>
<path d="M42.668 17V32.72C41.208 31.06 39.068 30 36.668 30C32.248 30 28.668 33.58 28.668 38C28.668 39.5 29.088 40.92 29.828 42.12C30.248 42.84 30.788 43.48 31.408 44H16.668C9.66797 44 6.66797 40 6.66797 34V17C6.66797 11 9.66797 7 16.668 7H32.668C39.668 7 42.668 11 42.668 17Z" stroke="#B9C7A4" stroke-width="2" stroke-miterlimit="10" stroke-linecap="round" stroke-linejoin="round"/>
<path d="M24.658 27.4H24.678M17.256 27.4H17.276M17.256 33.4H17.276" stroke="#B9C7A4" stroke-width="2" stroke-linecap="round" stroke-linejoin="round"/>
</svg>
