<svg width="49" height="48" viewBox="0 0 49 48" fill="none" xmlns="http://www.w3.org/2000/svg">
<path d="M36.5995 27.1C35.7595 27.92 35.2795 29.1 35.3995 30.36C35.5795 32.52 37.5595 34.1 39.7195 34.1H43.5195V36.48C43.5195 40.62 40.1395 44 35.9995 44H13.0395C8.89953 44 5.51953 40.62 5.51953 36.48V23.02C5.51953 18.88 8.89953 15.5 13.0395 15.5H35.9995C40.1395 15.5 43.5195 18.88 43.5195 23.02V25.9H39.4795C38.3595 25.9 37.3395 26.34 36.5995 27.1Z" stroke="#B9C7A4" stroke-width="2" stroke-linecap="round" stroke-linejoin="round"/>
<path d="M5.51953 24.8201V15.6801C5.51953 13.3001 6.97953 11.1801 9.19953 10.3401L25.0795 4.34005C25.6549 4.12323 26.2743 4.04926 26.8846 4.12451C27.4948 4.19975 28.0777 4.42196 28.5832 4.77206C29.0886 5.12215 29.5016 5.58968 29.7866 6.1345C30.0716 6.67933 30.2202 7.28518 30.2195 7.90005V15.5001M14.5195 24.0001H28.5195M45.6375 27.9401V32.0601C45.6375 33.1601 44.7575 34.0601 43.6375 34.1001H39.7175C37.5575 34.1001 35.5775 32.5201 35.3975 30.3601C35.2775 29.1001 35.7575 27.9201 36.5975 27.1001C37.3375 26.3401 38.3575 25.9001 39.4775 25.9001H43.6375C44.7575 25.9401 45.6375 26.8401 45.6375 27.9401V27.9401Z" stroke="#B9C7A4" stroke-width="2" stroke-linecap="round" stroke-linejoin="round"/>
</svg>
