<svg width="102" height="17" fill="none" xmlns="http://www.w3.org/2000/svg">
  <path d="m8.333.632 1.796 5.527h5.813l-4.703 3.417 1.797 5.528-4.703-3.417-4.702 3.417 1.796-5.528L.725 6.159h5.812L8.333.632ZM29.667.632l1.796 5.527h5.812l-4.702 3.417 1.796 5.528-4.702-3.417-4.703 3.417 1.797-5.528-4.703-3.417h5.813L29.666.632ZM51 .632l1.796 5.527h5.812l-4.702 3.417 1.796 5.528L51 11.687l-4.702 3.417 1.796-5.528-4.703-3.417h5.813L51 .632ZM72.333.632l1.796 5.527h5.813L75.24 9.576l1.796 5.528-4.703-3.417-4.702 3.417 1.796-5.528-4.702-3.417h5.812L72.333.632ZM93.667.632l1.796 5.527h5.812l-4.702 3.417 1.796 5.528-4.702-3.417-4.703 3.417 1.796-5.528-4.702-3.417h5.813L93.667.632Z" fill="#F4D154"/>
</svg>
