<svg width="96" height="96" fill="none" xmlns="http://www.w3.org/2000/svg">
  <circle cx="48" cy="48" r="48" fill="#B9C7A4"/>
  <circle cx="48" cy="48" r="40.5" stroke="#fff"/>
  <path d="m38.934 24.324.527.48c-.633 1.18-1.719 1.77-3.258 1.77-.187 0-.46-.015-.82-.047-.914 1.055-1.485 2.645-1.711 4.77-.047.445-.074.871-.082 1.277l3.047-.117-.82 1.008h-2.274c-.227 3.148-1.715 5.426-4.465 6.832-1.578.805-3.379 1.207-5.402 1.207-1.242 0-2.356-.242-3.34-.727a3.153 3.153 0 0 1-1.207-.996c-.297-.422-.445-.925-.445-1.511 0-.586.12-1.11.363-1.57.242-.462.547-.817.914-1.067.367-.258.828-.461 1.383-.61.875-.242 1.988-.363 3.34-.363-.883-1.156-1.325-2.355-1.325-3.597 0-.907.223-1.79.668-2.649a7.4 7.4 0 0 1 1.758-2.227 8.595 8.595 0 0 1 2.578-1.511c.992-.383 1.914-.574 2.766-.574.86 0 1.937.168 3.234.503 1.305.336 2.262.504 2.871.504.61 0 1.176-.261 1.7-.785ZM20.336 37.051a2.868 2.868 0 0 0-.258 1.23c0 .453.125.844.375 1.172.25.32.57.57.961.75.773.352 1.625.527 2.555.527.93 0 1.812-.128 2.648-.386a6.486 6.486 0 0 0 2.25-1.242c1.375-1.157 2.235-3.043 2.578-5.66h-2.52l.47-.75 2.132-.118c.11-.992.305-1.816.586-2.472.282-.657.516-1.165.703-1.524.196-.36.387-.672.575-.937.312-.453.64-.88.984-1.278-1.195-.5-2.336-.75-3.422-.75-1.078 0-1.992.114-2.742.34a6.723 6.723 0 0 0-2.027.996 4.52 4.52 0 0 0-1.43 1.711c-.352.711-.527 1.52-.527 2.426 0 .89.136 1.586.41 2.086.11.195.203.363.281.504.078.14.207.3.387.48.187.172.332.309.433.41.11.102.285.243.528.422.32.227.609.426.867.598s.394.266.41.281l.047.024-.34.433c-1.273-.625-2.371-.937-3.293-.937-1.883 0-3.09.554-3.621 1.664ZM40.07 25.414h1.899c-.336.578-.852 1.863-1.547 3.855a109.12 109.12 0 0 0-1.91 6c-.57 2.008-.856 3.239-.856 3.692 0 .445.055.668.164.668.328 0 .84-.496 1.535-1.488l.493.468a7.491 7.491 0 0 1-1.114 1.5c-.703.72-1.273 1.078-1.71 1.078-.797 0-1.196-.48-1.196-1.44 0-1.43.473-3.684 1.418-6.763.953-3.078 1.895-5.601 2.824-7.57Zm.387 12.797c0-.586.14-1.148.422-1.688.289-.546.66-1.007 1.113-1.382 1-.813 2.02-1.22 3.059-1.22 1.039 0 1.89.278 2.554.833.665.555.997 1.25.997 2.086 0 .828-.23 1.574-.692 2.238a4.668 4.668 0 0 1-1.804 1.559 5.52 5.52 0 0 1-2.462.55c-.882 0-1.636-.277-2.261-.831-.617-.563-.926-1.278-.926-2.145Zm3.832 2.25c.36 0 .695-.117 1.008-.352.32-.234.562-.539.726-.914.32-.718.48-1.46.48-2.226s-.14-1.344-.421-1.735c-.281-.398-.68-.597-1.195-.597-.516 0-1.028.336-1.535 1.008-.5.671-.75 1.527-.75 2.566 0 1.5.562 2.25 1.687 2.25Zm8.461-.586c.664 0 1.336-.234 2.016-.703a5.911 5.911 0 0 0 1.629-1.64c.406-.634.609-1.196.609-1.688-.047.062-.219.093-.516.093-.289 0-.523-.093-.703-.28a.987.987 0 0 1-.27-.692c0-.274.102-.516.305-.727.203-.21.485-.316.844-.316.992 0 1.488.543 1.488 1.629 0 .492-.152 1.054-.457 1.687a7.927 7.927 0 0 1-1.254 1.84c-.523.594-1.203 1.094-2.039 1.5a5.908 5.908 0 0 1-2.636.61c-.922 0-1.383-.45-1.383-1.348 0-.508.144-1.196.433-2.063.297-.875.446-1.433.446-1.675 0-.243-.07-.364-.211-.364-.211 0-.63.508-1.254 1.524l-.762-.434c1.149-1.937 2.203-2.906 3.164-2.906.258 0 .48.098.668.293.196.187.293.5.293.937 0 .43-.156 1.227-.469 2.391-.312 1.164-.468 1.781-.468 1.852 0 .32.175.48.527.48Zm8.11-1.184c.046.899.652 1.348 1.816 1.348.43 0 .875-.121 1.336-.363.469-.25.847-.543 1.136-.88l.504.329c-.648 1.086-1.683 1.75-3.105 1.992-.313.047-.613.07-.902.07-.844 0-1.547-.277-2.11-.831a2.792 2.792 0 0 1-.844-2.051c0-.805.246-1.547.739-2.227a5.077 5.077 0 0 1 1.84-1.594c.742-.375 1.472-.562 2.19-.562.72 0 1.34.164 1.864.492.532.328.801.77.809 1.324a2.093 2.093 0 0 1-.48 1.442 3.247 3.247 0 0 1-1.278.914c-1.023.414-2.027.62-3.012.62l-.504-.023Zm-.07-.644c.866-.031 1.562-.168 2.085-.41.531-.25.898-.532 1.102-.844.21-.32.316-.652.316-.996 0-.352-.09-.61-.27-.774-.18-.171-.37-.257-.574-.257-.5 0-.96.175-1.383.527-.414.344-.73.766-.949 1.266a3.634 3.634 0 0 0-.328 1.488Zm12.62-2.59c-.297 0-.648.191-1.054.574-.407.375-.801.836-1.184 1.383-.61.875-1.23 1.883-1.863 3.023l-.317.563H67.34l.363-1.102c.68-2.03 1.02-3.234 1.02-3.609 0-.383-.063-.574-.188-.574-.226 0-.496.27-.808.808-.07.125-.13.227-.176.305-.047.07-.102.16-.164.27-.055.101-.09.164-.106.187l-.785-.457c.61-.992 1.168-1.723 1.676-2.191.508-.477 1.027-.715 1.559-.715.242 0 .449.101.62.305.18.203.27.445.27.726 0 .274-.015.52-.047.738a8.927 8.927 0 0 1-.27 1.23c-.07.25-.128.442-.175.575a39.574 39.574 0 0 1-.293.938c.14-.282.379-.696.715-1.243.336-.547.555-.89.656-1.03.102-.142.242-.329.422-.563.18-.235.336-.414.469-.54.14-.132.304-.28.492-.445.195-.172.379-.3.55-.386.438-.204.86-.305 1.266-.305s.73.121.973.363c.25.235.375.512.375.832 0 .313-.102.59-.305.832-.195.235-.426.352-.691.352-.258 0-.461-.043-.61-.13a.846.846 0 0 1-.304-.292c-.164-.281-.309-.422-.434-.422ZM39.156 56.488c0-1.68-.793-2.52-2.379-2.52-.687 0-1.28.212-1.78.634-.5.421-.888.964-1.161 1.629a22.539 22.539 0 0 0-.809 2.402 55.9 55.9 0 0 0-.691 2.789c-.508 2.273-1.227 4.168-2.156 5.684.28.125.71.328 1.289.609.578.273 1.043.488 1.394.644.985.446 1.848.668 2.59.668.328 0 .637-.082.926-.246.289-.164.508-.34.656-.527a7.82 7.82 0 0 0 .399-.54c.117-.163.187-.245.21-.245l.528.304c-.688 1.297-1.414 2.102-2.18 2.415-.344.14-.785.21-1.324.21-.54 0-1.133-.097-1.781-.292a17.383 17.383 0 0 1-2.168-.82c-.797-.36-1.36-.599-1.688-.716-.625.54-1.425.98-2.402 1.325-.969.336-2.082.503-3.34.503a4.117 4.117 0 0 1-1.723-.351c-.976-.453-1.464-1.028-1.464-1.723 0-.695.214-1.281.644-1.758.82-.906 1.957-1.359 3.41-1.359 1.04 0 2.137.215 3.293.645.422.164.973.39 1.653.68.335-.93.62-2 .855-3.212.234-1.21.453-2.21.656-3 .203-.797.41-1.527.621-2.191.22-.672.5-1.324.844-1.957a7.952 7.952 0 0 1 1.16-1.617c.93-.97 2.14-1.453 3.633-1.453 1.133 0 2.055.328 2.766.984.718.656 1.078 1.578 1.078 2.766 0 .882-.18 1.742-.54 2.578a7.52 7.52 0 0 1-1.405 2.191 8.382 8.382 0 0 1-2.04 1.606 7.236 7.236 0 0 1-2.378.867l-.164-.645c.953-.234 1.812-.71 2.578-1.43a7.575 7.575 0 0 0 1.77-2.542 7.59 7.59 0 0 0 .62-2.989ZM20.84 68.184c0 .617.383 1.03 1.148 1.242 1.586.437 3.164.3 4.735-.41.586-.274 1.035-.614 1.347-1.02-1.562-1.055-2.98-1.582-4.254-1.582-1.984 0-2.976.59-2.976 1.77Zm18.246-.973c0-.586.14-1.148.422-1.688.289-.546.66-1.007 1.113-1.382 1-.813 2.02-1.22 3.059-1.22 1.039 0 1.89.278 2.554.833.664.555.996 1.25.996 2.086 0 .828-.23 1.574-.69 2.238a4.668 4.668 0 0 1-1.806 1.559 5.52 5.52 0 0 1-2.46.55c-.883 0-1.637-.277-2.262-.831-.617-.563-.926-1.278-.926-2.145Zm3.832 2.25c.36 0 .695-.117 1.008-.352.32-.234.562-.539.726-.914.32-.718.48-1.46.48-2.226s-.14-1.344-.421-1.735c-.281-.398-.68-.597-1.195-.597-.516 0-1.028.336-1.535 1.007-.5.672-.75 1.528-.75 2.567 0 1.5.562 2.25 1.687 2.25Zm8.46-.586c.665 0 1.337-.234 2.017-.703a5.911 5.911 0 0 0 1.628-1.64c.407-.634.61-1.196.61-1.688-.047.062-.219.094-.516.094-.289 0-.523-.094-.703-.282a.987.987 0 0 1-.27-.691c0-.274.102-.516.305-.727.203-.21.485-.316.844-.316.992 0 1.488.543 1.488 1.629 0 .492-.152 1.055-.457 1.687a7.927 7.927 0 0 1-1.254 1.84c-.523.594-1.203 1.094-2.039 1.5a5.908 5.908 0 0 1-2.636.61c-.922 0-1.383-.45-1.383-1.348 0-.508.144-1.196.433-2.063.297-.875.446-1.433.446-1.675 0-.243-.07-.364-.211-.364-.211 0-.63.508-1.254 1.524l-.762-.434c1.148-1.937 2.203-2.906 3.164-2.906.258 0 .48.098.668.293.195.187.293.5.293.937 0 .43-.156 1.227-.469 2.391-.312 1.164-.468 1.781-.468 1.851 0 .32.175.481.527.481Zm8.11-1.184c.047.899.653 1.348 1.817 1.348.43 0 .875-.121 1.336-.363.468-.25.847-.543 1.136-.88l.504.329c-.648 1.086-1.683 1.75-3.105 1.992-.313.047-.614.07-.903.07-.843 0-1.546-.277-2.109-.831a2.792 2.792 0 0 1-.844-2.051c0-.805.246-1.547.739-2.227a5.077 5.077 0 0 1 1.84-1.594c.742-.375 1.472-.562 2.19-.562.72 0 1.34.164 1.864.492.531.328.8.77.809 1.324a2.093 2.093 0 0 1-.48 1.442 3.247 3.247 0 0 1-1.278.914c-1.023.414-2.027.62-3.012.62l-.504-.023Zm-.07-.644c.867-.031 1.563-.168 2.086-.41.531-.25.898-.531 1.102-.844.21-.32.316-.652.316-.996 0-.352-.09-.61-.27-.774-.18-.171-.37-.257-.574-.257-.5 0-.96.175-1.383.527-.414.344-.73.766-.949 1.266a3.634 3.634 0 0 0-.328 1.488Zm12.621-2.59c-.297 0-.648.191-1.055.574-.406.375-.8.836-1.183 1.383-.61.875-1.23 1.883-1.864 3.023l-.316.563H65.97l.363-1.102c.68-2.03 1.02-3.234 1.02-3.609 0-.383-.063-.574-.188-.574-.227 0-.496.27-.808.808-.07.125-.13.227-.176.305-.047.07-.102.16-.164.27-.055.101-.09.164-.106.187l-.785-.457c.61-.992 1.168-1.722 1.676-2.191.508-.477 1.027-.715 1.558-.715.243 0 .45.101.622.305.18.203.269.445.269.726 0 .274-.016.52-.047.738a8.927 8.927 0 0 1-.27 1.23c-.07.25-.128.442-.175.575a39.319 39.319 0 0 1-.293.938c.14-.282.379-.696.715-1.243.336-.547.554-.89.656-1.03.102-.142.242-.329.422-.563.18-.235.336-.414.469-.54.14-.132.304-.28.492-.445.195-.172.379-.3.55-.386.438-.204.86-.305 1.266-.305s.73.121.973.363c.25.235.375.512.375.832 0 .313-.102.59-.305.832-.195.235-.426.352-.691.352-.258 0-.461-.043-.61-.13a.846.846 0 0 1-.304-.292c-.164-.281-.309-.422-.434-.422Z" fill="#fff"/>
</svg>
