<svg width="48" height="48" viewBox="0 0 48 48" fill="none" xmlns="http://www.w3.org/2000/svg">
<path d="M38 18C38 20.9 37.14 23.56 35.66 25.78C34.5755 27.3975 33.1648 28.7704 31.5185 29.8105C29.8721 30.8507 28.0265 31.5352 26.1 31.82C25.42 31.94 24.72 32 24 32C23.28 32 22.58 31.94 21.9 31.82C19.9735 31.5352 18.1279 30.8507 16.4815 29.8105C14.8352 28.7704 13.4245 27.3975 12.34 25.78C10.8046 23.4766 9.98999 20.7682 10 18C10 10.26 16.26 4 24 4C31.74 4 38 10.26 38 18Z" stroke="#42444C" stroke-width="2" stroke-linecap="round" stroke-linejoin="round"/>
<path d="M42.5 36.94L39.2 37.72C38.46 37.9 37.88 38.46 37.72 39.2L37.02 42.14C36.9341 42.5009 36.7496 42.8308 36.487 43.0928C36.2244 43.3549 35.8941 43.5387 35.533 43.6238C35.1719 43.7088 34.7943 43.6918 34.4423 43.5746C34.0904 43.4574 33.778 43.2446 33.54 42.96L24 32L14.46 42.98C14.222 43.2646 13.9096 43.4774 13.5577 43.5946C13.2057 43.7118 12.8281 43.7288 12.467 43.6438C12.1059 43.5587 11.7756 43.3749 11.513 43.1128C11.2504 42.8508 11.0659 42.5209 10.98 42.16L10.28 39.22C10.1949 38.8603 10.0114 38.5313 9.75004 38.27C9.48867 38.0086 9.15972 37.8251 8.8 37.74L5.5 36.96C5.15425 36.8771 4.83674 36.7038 4.57999 36.4579C4.32323 36.212 4.13645 35.9022 4.03878 35.5603C3.9411 35.2185 3.93604 34.8568 4.02411 34.5123C4.11219 34.1679 4.29022 33.853 4.54 33.6L12.34 25.8C13.4245 27.4175 14.8352 28.7904 16.4815 29.8305C18.1279 30.8707 19.9735 31.5552 21.9 31.84C22.58 31.96 23.28 32.02 24 32.02C24.72 32.02 25.42 31.96 26.1 31.84C30.08 31.26 33.5 29 35.66 25.8L43.46 33.6C44.56 34.68 44.02 36.58 42.5 36.94V36.94ZM25.16 11.96L26.34 14.32C26.5 14.64 26.92 14.96 27.3 15.02L29.44 15.38C30.8 15.6 31.12 16.6 30.14 17.58L28.48 19.24C28.2 19.52 28.04 20.06 28.14 20.46L28.62 22.52C29 24.14 28.14 24.78 26.7 23.92L24.7 22.74C24.4969 22.6316 24.2702 22.5749 24.04 22.5749C23.8098 22.5749 23.5831 22.6316 23.38 22.74L21.38 23.92C19.94 24.76 19.08 24.14 19.46 22.52L19.94 20.46C20.02 20.08 19.88 19.52 19.6 19.24L17.94 17.58C16.96 16.6 17.28 15.62 18.64 15.38L20.78 15.02C21.14 14.96 21.56 14.64 21.72 14.32L22.9 11.96C23.48 10.68 24.52 10.68 25.16 11.96V11.96Z" stroke="#42444C" stroke-width="2" stroke-linecap="round" stroke-linejoin="round"/>
</svg>
