<svg width="48" height="48" viewBox="0 0 48 48" fill="none" xmlns="http://www.w3.org/2000/svg">
<path d="M6.09776 22.4399V31.4199C6.09776 40.3999 9.68219 43.9999 18.6234 43.9999H29.3567C38.2979 43.9999 41.8823 40.3999 41.8823 31.4199V22.4399" stroke="#B9C7A4" stroke-width="2" stroke-linecap="round" stroke-linejoin="round"/>
<path d="M24 24C27.6442 24 30.3325 21.02 29.974 17.36L28.6598 4H19.3602L18.0259 17.36C17.6675 21.02 20.3558 24 24 24Z" stroke="#B9C7A4" stroke-width="2" stroke-linecap="round" stroke-linejoin="round"/>
<path d="M36.5654 24C40.5879 24 43.5351 20.72 43.1369 16.7L42.5793 11.2C41.8624 6 39.8711 4 34.6537 4H28.5801L29.9741 18.02C30.3126 21.32 33.2797 24 36.5654 24ZM11.335 24C14.6207 24 17.5879 21.32 17.9065 18.02L18.3446 13.6L19.3004 4H13.2268C8.00946 4 6.01811 6 5.30122 11.2L4.76355 16.7C4.36528 20.72 7.31248 24 11.335 24ZM24 34C20.6744 34 19.0216 35.66 19.0216 39V44H28.9784V39C28.9784 35.66 27.3256 34 24 34Z" stroke="#B9C7A4" stroke-width="2" stroke-linecap="round" stroke-linejoin="round"/>
</svg>
