<svg aria-hidden="true" style="position:absolute;width:0;height:0;overflow:hidden" xmlns="http://www.w3.org/2000/svg">
  <defs>
    <symbol id="icon-CalendarTick" viewBox="0 0 32 32">
      <path fill="none" stroke="#b9c7a4" style="stroke:var(--color1, #b9c7a4)" stroke-linejoin="round" stroke-linecap="round" stroke-miterlimit="10" stroke-width="1.306" d="M10.885 2.939v3.918m10.449-3.918v3.918M5.008 12.199h22.204m1.959 12.944c0 .98-.274 1.907-.758 2.691a5.182 5.182 0 0 1-4.467 2.534 5.1 5.1 0 0 1-3.435-1.306 4.697 4.697 0 0 1-1.032-1.228 5.13 5.13 0 0 1-.758-2.691 5.222 5.222 0 0 1 5.224-5.224c1.567 0 2.965.692 3.918 1.776a5.224 5.224 0 0 1 1.306 3.448z"/>
      <path fill="none" stroke="#b9c7a4" style="stroke:var(--color1, #b9c7a4)" stroke-linejoin="round" stroke-linecap="round" stroke-width="1.306" d="m21.909 25.143 1.293 1.293 2.782-2.573"/>
      <path fill="none" stroke="#b9c7a4" style="stroke:var(--color1, #b9c7a4)" stroke-linejoin="round" stroke-linecap="round" stroke-miterlimit="10" stroke-width="1.306" d="M27.865 11.429v10.266a5.202 5.202 0 0 0-3.918-1.776 5.222 5.222 0 0 0-5.224 5.224c0 .98.274 1.907.758 2.691.274.47.627.888 1.032 1.228h-9.626c-4.571 0-6.531-2.612-6.531-6.531V11.429c0-3.918 1.959-6.531 6.531-6.531h10.449c4.571 0 6.531 2.612 6.531 6.531z"/>
      <path fill="none" stroke="#b9c7a4" style="stroke:var(--color1, #b9c7a4)" stroke-linejoin="round" stroke-linecap="round" stroke-width="1.306" d="M16.103 18.22h.013m-4.847 0h.013m-.013 3.919h.013"/>
    </symbol>
    <symbol id="icon-CallCalling" viewBox="0 0 32 32">
      <path fill="none" stroke="#d61f53" style="stroke:var(--color2, #d61f53)" stroke-miterlimit="10" stroke-width="2" d="M29.293 24.44c0 .48-.107.973-.333 1.453s-.52.933-.907 1.36c-.653.72-1.373 1.24-2.187 1.573-.8.333-1.667.507-2.6.507-1.36 0-2.813-.32-4.347-.973s-3.067-1.533-4.587-2.64a38.32 38.32 0 0 1-4.373-3.733 37.89 37.89 0 0 1-3.72-4.36c-1.093-1.52-1.973-3.04-2.613-4.547-.64-1.52-.96-2.973-.96-4.36 0-.907.16-1.773.48-2.573.32-.813.827-1.56 1.533-2.227.853-.84 1.787-1.253 2.773-1.253.373 0 .747.08 1.08.24.347.16.653.4.893.747l3.093 4.36c.24.333.413.64.533.933.12.28.187.56.187.813 0 .32-.093.64-.28.947a4.52 4.52 0 0 1-.747.947l-1.013 1.053a.712.712 0 0 0-.213.533c0 .107.013.2.04.307.04.107.08.187.107.267.24.44.653 1.013 1.24 1.707.6.693 1.24 1.4 1.933 2.107.72.707 1.413 1.36 2.12 1.96.693.587 1.267.987 1.72 1.227.067.027.147.067.24.107a.92.92 0 0 0 .333.053c.227 0 .4-.08.547-.227l1.013-1c.333-.333.653-.587.96-.747.307-.187.613-.28.947-.28.253 0 .52.053.813.173s.6.293.933.52l4.413 3.133c.347.24.587.52.733.853.133.333.213.667.213 1.04z"/>
      <path fill="none" stroke="#d61f53" style="stroke:var(--color2, #d61f53)" stroke-linejoin="round" stroke-linecap="round" stroke-width="2" d="M24.667 12c0-.8-.627-2.027-1.56-3.027-.853-.92-1.987-1.64-3.107-1.64M29.333 12A9.326 9.326 0 0 0 20 2.667"/>
    </symbol>
    <symbol id="icon-EmptyWallet" viewBox="0 0 32 32">
      <path fill="none" stroke="#b9c7a4" style="stroke:var(--color1, #b9c7a4)" stroke-linejoin="round" stroke-linecap="round" stroke-width="1.306" d="M23.902 18.024a2.622 2.622 0 0 0-.784 2.129c.118 1.411 1.411 2.442 2.821 2.442h2.482v1.554a4.922 4.922 0 0 1-4.911 4.911H8.516a4.922 4.922 0 0 1-4.911-4.911v-8.79a4.922 4.922 0 0 1 4.911-4.911H23.51a4.922 4.922 0 0 1 4.911 4.911v1.881h-2.638c-.731 0-1.398.287-1.881.784z"/>
      <path fill="none" stroke="#b9c7a4" style="stroke:var(--color1, #b9c7a4)" stroke-linejoin="round" stroke-linecap="round" stroke-width="1.306" d="M3.605 16.536v-5.969c0-1.554.953-2.939 2.403-3.487l10.371-3.918a2.479 2.479 0 0 1 3.074 1.172c.186.356.283.751.283 1.153v4.963M9.482 16h9.143m11.179 2.573v2.691c0 .718-.575 1.306-1.306 1.332h-2.56c-1.411 0-2.704-1.032-2.821-2.442a2.624 2.624 0 0 1 .784-2.129 2.604 2.604 0 0 1 1.881-.784h2.717a1.341 1.341 0 0 1 1.306 1.332v0z"/>
    </symbol>
    <symbol id="icon-Facebook" viewBox="0 0 32 32">
      <path stroke-linecap="round" stroke-miterlimit="10" d="M18.667 12.4v3.867h3.467c.267 0 .4.267.4.533l-.533 2.533c0 .133-.267.267-.4.267h-2.933v9.733h-4v-9.6h-2.267c-.267 0-.4-.133-.4-.4V16.8c0-.267.133-.4.4-.4h2.267V12c0-2.267 1.733-4 4-4h3.6c.267 0 .4.133.4.4v3.2c0 .267-.133.4-.4.4h-3.2c-.267 0-.4.133-.4.4z"/>
      <path stroke-linejoin="round" stroke-linecap="round" d="M20 29.333h-8c-6.667 0-9.333-2.667-9.333-9.333v-8c0-6.667 2.667-9.333 9.333-9.333h8c6.667 0 9.333 2.667 9.333 9.333v8c0 6.667-2.667 9.333-9.333 9.333z"/>
    </symbol>
    <symbol id="icon-MedalStar" viewBox="0 0 32 32">
      <path stroke-linejoin="round" stroke-linecap="round" stroke-width="1.333" d="M25.333 12a9.29 9.29 0 0 1-1.56 5.187 9.307 9.307 0 0 1-6.373 4.027c-.453.08-.92.12-1.4.12s-.947-.04-1.4-.12a9.304 9.304 0 0 1-6.373-4.027A9.286 9.286 0 0 1 6.667 12c0-5.16 4.173-9.333 9.333-9.333S25.333 6.84 25.333 12z"/>
      <path stroke-linejoin="round" stroke-linecap="round" stroke-width="1.333" d="m28.333 24.627-2.2.52a1.31 1.31 0 0 0-.987.987l-.467 1.96a1.326 1.326 0 0 1-.991.989 1.332 1.332 0 0 1-1.329-.443l-6.36-7.307-6.36 7.32a1.332 1.332 0 0 1-2.32-.546l-.467-1.96a1.329 1.329 0 0 0-.986-.986l-2.2-.52a1.33 1.33 0 0 1-.974-.933 1.337 1.337 0 0 1 .334-1.307l5.2-5.2a9.307 9.307 0 0 0 6.373 4.027c.453.08.92.12 1.4.12s.947-.04 1.4-.12a9.313 9.313 0 0 0 6.373-4.027l5.2 5.2c.733.72.373 1.987-.64 2.227zM16.773 7.973l.787 1.573a.969.969 0 0 0 .64.467l1.427.24c.907.147 1.12.813.467 1.467l-1.107 1.107a.946.946 0 0 0-.227.813l.32 1.373c.253 1.08-.32 1.507-1.28.933l-1.333-.787a.938.938 0 0 0-.88 0l-1.333.787c-.96.56-1.533.147-1.28-.933l.32-1.373c.053-.253-.04-.627-.227-.813L11.96 11.72c-.653-.653-.44-1.307.467-1.467l1.427-.24c.24-.04.52-.253.627-.467l.787-1.573c.387-.853 1.08-.853 1.507 0z"/>
    </symbol>
    <symbol id="icon-Tree" viewBox="0 0 32 32">
      <path stroke-linejoin="round" stroke-linecap="round" stroke-width="1.143" d="M21.56 13.413H10.44c-1.573 0-2.12-1.053-1.2-2.333l5.56-7.787c.653-.933 1.747-.933 2.387 0l5.56 7.787c.933 1.28.387 2.333-1.187 2.333zM16 29.333V24m7.453 0H8.56c-2.107 0-2.827-1.4-1.587-3.107l5.32-7.48h7.427l5.32 7.48C26.28 22.6 25.56 24 23.453 24z"/>
    </symbol>
    <symbol id="icon-Star-5" viewBox="0 0 32 32">
      <path fill="#f4d154" style="fill:var(--color3, #f4d154)" d="m15.333 1.263 3.592 11.056H30.55l-9.405 6.833 3.592 11.056-9.404-6.833-9.405 6.833L9.52 19.152.115 12.319H11.74l3.592-11.056z"/>
    </symbol>
    <symbol id="icon-Shop" viewBox="0 0 32 32">
      <path fill="none" stroke="#b9c7a4" style="stroke:var(--color1, #b9c7a4)" stroke-linejoin="round" stroke-linecap="round" stroke-width="1.333" d="M4.065 14.96v5.987c0 5.987 2.39 8.387 8.35 8.387h7.156c5.961 0 8.35-2.4 8.35-8.387V14.96"/>
      <path fill="none" stroke="#b9c7a4" style="stroke:var(--color1, #b9c7a4)" stroke-linejoin="round" stroke-linecap="round" stroke-width="1.333" d="M16 16c2.429 0 4.222-1.987 3.983-4.427l-.876-8.907h-6.2l-.89 8.907C11.778 14.013 13.57 16 16 16z"/>
      <path fill="none" stroke="#b9c7a4" style="stroke:var(--color1, #b9c7a4)" stroke-linejoin="round" stroke-linecap="round" stroke-width="1.333" d="M24.377 16c2.682 0 4.646-2.187 4.381-4.867l-.372-3.667c-.478-3.467-1.805-4.8-5.284-4.8h-4.049l.929 9.347c.226 2.2 2.204 3.987 4.394 3.987zm-16.82 0c2.19 0 4.169-1.787 4.381-3.987l.292-2.947.637-6.4H8.818c-3.478 0-4.806 1.333-5.284 4.8l-.358 3.667C2.911 13.813 4.875 16 7.557 16zM16 22.667c-2.217 0-3.319 1.107-3.319 3.333v3.333h6.638V26c0-2.227-1.102-3.333-3.319-3.333z"/>
    </symbol>
    <symbol id="icon-Send2" viewBox="0 0 32 32">
      <path stroke-linejoin="round" stroke-linecap="round" d="m13.48 18.2 4.773-4.787M9.867 8.427l11.32-3.773c5.08-1.693 7.84 1.08 6.16 6.16l-3.773 11.32c-2.533 7.613-6.693 7.613-9.227 0l-1.12-3.36-3.36-1.12c-7.613-2.533-7.613-6.68 0-9.227z"/>
    </symbol>
    <symbol id="icon-Money3" viewBox="0 0 32 32">
      <path stroke-linejoin="round" stroke-linecap="round" stroke-miterlimit="10" d="M22.667 27.333H9.334c-4 0-6.667-2-6.667-6.667v-9.333c0-4.667 2.667-6.667 6.667-6.667h13.333c4 0 6.667 2 6.667 6.667v9.333c0 4.667-2.667 6.667-6.667 6.667z"/>
      <path stroke-linejoin="round" stroke-linecap="round" stroke-miterlimit="10" d="M25.333 9.333h-4M10.667 22.667h-4M16 20a4.003 4.003 0 0 0 4-4 4.001 4.001 0 0 0-6.828-2.828 4.001 4.001 0 0 0 0 5.656A4.001 4.001 0 0 0 16 20z"/>
    </symbol>
    <symbol id="icon-TruckFast" viewBox="0 0 32 32">
      <path fill="none" stroke="#b9c7a4" style="stroke:var(--color1, #b9c7a4)" stroke-linejoin="round" stroke-linecap="round" stroke-width="1.333" d="M16.32 18.667h1.278c1.406 0 2.556-1.2 2.556-2.667V2.667h-11.5c-1.917 0-3.591 1.107-4.459 2.733"/>
      <path fill="none" stroke="#b9c7a4" style="stroke:var(--color1, #b9c7a4)" stroke-linejoin="round" stroke-linecap="round" stroke-width="1.333" d="M3.543 22.667c0 2.213 1.712 4 3.833 4h1.278C8.654 25.2 9.804 24 11.21 24s2.556 1.2 2.556 2.667h5.111c0-1.467 1.15-2.667 2.556-2.667s2.556 1.2 2.556 2.667h1.278c2.121 0 3.833-1.787 3.833-4v-4h-3.833c-.703 0-1.278-.6-1.278-1.333v-4c0-.733.575-1.333 1.278-1.333h1.648L24.73 8.014c-.225-.408-.549-.747-.939-.983s-.833-.362-1.284-.363h-2.351v9.333c0 1.467-1.15 2.667-2.556 2.667h-1.278"/>
      <path fill="none" stroke="#b9c7a4" style="stroke:var(--color1, #b9c7a4)" stroke-linejoin="round" stroke-linecap="round" stroke-width="1.333" d="M3.543 10.667h7.667m-7.667 4h5.111m-5.111 4h2.556m5.11 10.666c.678 0 1.328-.281 1.807-.781s.748-1.178.748-1.886-.269-1.386-.748-1.886-1.129-.781-1.807-.781-1.328.281-1.807.781c-.479.5-.748 1.178-.748 1.886s.269 1.386.748 1.886 1.129.781 1.807.781v0zm10.222 0c.678 0 1.328-.281 1.807-.781s.749-1.178.749-1.886-.269-1.386-.749-1.886c-.479-.5-1.129-.781-1.807-.781s-1.328.281-1.807.781c-.479.5-.749 1.178-.749 1.886s.269 1.386.749 1.886c.479.5 1.129.781 1.807.781zM29.098 16v2.667h-3.833c-.703 0-1.278-.6-1.278-1.333v-4c0-.733.575-1.333 1.278-1.333h1.648l2.185 4z"/>
    </symbol>
    <symbol id="icon-UserEdit" viewBox="0 0 32 32">
      <path stroke-linejoin="round" stroke-linecap="round" stroke-width="1.333" d="M16 16a6.67 6.67 0 0 0 4.714-11.381A6.668 6.668 0 1 0 16 16z"/>
      <path stroke-linejoin="round" stroke-linecap="round" stroke-miterlimit="10" stroke-width="1.333" d="m25.613 20.987-4.72 4.72a1.64 1.64 0 0 0-.4.787l-.253 1.8c-.093.653.36 1.107 1.013 1.013l1.8-.253c.253-.04.613-.213.787-.4l4.72-4.72c.813-.813 1.2-1.76 0-2.96-1.187-1.187-2.133-.8-2.947.013z"/>
      <path stroke-linejoin="round" stroke-linecap="round" stroke-miterlimit="10" stroke-width="1.333" d="M24.933 21.667c.4 1.44 1.52 2.56 2.96 2.96"/>
      <path stroke-linejoin="round" stroke-linecap="round" stroke-width="1.333" d="M4.547 29.333C4.547 24.173 9.68 20 16 20c1.387 0 2.72.2 3.96.573"/>
    </symbol>
  </defs>
</svg>
