<svg aria-hidden="true" style="position:absolute;width:0;height:0;overflow:hidden" xmlns="http://www.w3.org/2000/svg">
  <defs>
    <symbol id="icon-CalendarTick" viewBox="0 0 32 32">
      <path fill="none" stroke="#b9c7a4" style="stroke:var(--color1, #b9c7a4)" stroke-linejoin="round" stroke-linecap="round" stroke-miterlimit="10" stroke-width="1.306" d="M10.885 2.939v3.918m10.449-3.918v3.918M5.008 12.199h22.204m1.959 12.944c0 .98-.274 1.907-.758 2.691a5.182 5.182 0 0 1-4.467 2.534 5.1 5.1 0 0 1-3.435-1.306 4.697 4.697 0 0 1-1.032-1.228 5.13 5.13 0 0 1-.758-2.691 5.222 5.222 0 0 1 5.224-5.224c1.567 0 2.965.692 3.918 1.776a5.224 5.224 0 0 1 1.306 3.448z"/>
      <path fill="none" stroke="#b9c7a4" style="stroke:var(--color1, #b9c7a4)" stroke-linejoin="round" stroke-linecap="round" stroke-width="1.306" d="m21.909 25.143 1.293 1.293 2.782-2.573"/>
      <path fill="none" stroke="#b9c7a4" style="stroke:var(--color1, #b9c7a4)" stroke-linejoin="round" stroke-linecap="round" stroke-miterlimit="10" stroke-width="1.306" d="M27.865 11.429v10.266a5.202 5.202 0 0 0-3.918-1.776 5.222 5.222 0 0 0-5.224 5.224c0 .98.274 1.907.758 2.691.274.47.627.888 1.032 1.228h-9.626c-4.571 0-6.531-2.612-6.531-6.531V11.429c0-3.918 1.959-6.531 6.531-6.531h10.449c4.571 0 6.531 2.612 6.531 6.531z"/>
      <path fill="none" stroke="#b9c7a4" style="stroke:var(--color1, #b9c7a4)" stroke-linejoin="round" stroke-linecap="round" stroke-width="1.306" d="M16.103 18.22h.013m-4.847 0h.013m-.013 3.919h.013"/>
    </symbol>
    <symbol id="icon-CallCalling" viewBox="0 0 32 32">
      <path fill="none" stroke="#d61f53" style="stroke:var(--color2, #d61f53)" stroke-miterlimit="10" stroke-width="2" d="M29.293 24.44c0 .48-.107.973-.333 1.453s-.52.933-.907 1.36c-.653.72-1.373 1.24-2.187 1.573-.8.333-1.667.507-2.6.507-1.36 0-2.813-.32-4.347-.973s-3.067-1.533-4.587-2.64a38.32 38.32 0 0 1-4.373-3.733 37.89 37.89 0 0 1-3.72-4.36c-1.093-1.52-1.973-3.04-2.613-4.547-.64-1.52-.96-2.973-.96-4.36 0-.907.16-1.773.48-2.573.32-.813.827-1.56 1.533-2.227.853-.84 1.787-1.253 2.773-1.253.373 0 .747.08 1.08.24.347.16.653.4.893.747l3.093 4.36c.24.333.413.64.533.933.12.28.187.56.187.813 0 .32-.093.64-.28.947a4.52 4.52 0 0 1-.747.947l-1.013 1.053a.712.712 0 0 0-.213.533c0 .107.013.2.04.307.04.107.08.187.107.267.24.44.653 1.013 1.24 1.707.6.693 1.24 1.4 1.933 2.107.72.707 1.413 1.36 2.12 1.96.693.587 1.267.987 1.72 1.227.067.027.147.067.24.107a.92.92 0 0 0 .333.053c.227 0 .4-.08.547-.227l1.013-1c.333-.333.653-.587.96-.747.307-.187.613-.28.947-.28.253 0 .52.053.813.173s.6.293.933.52l4.413 3.133c.347.24.587.52.733.853.133.333.213.667.213 1.04z"/>
      <path fill="none" stroke="#d61f53" style="stroke:var(--color2, #d61f53)" stroke-linejoin="round" stroke-linecap="round" stroke-width="2" d="M24.667 12c0-.8-.627-2.027-1.56-3.027-.853-.92-1.987-1.64-3.107-1.64M29.333 12A9.326 9.326 0 0 0 20 2.667"/>
    </symbol>
    <symbol id="icon-EmptyWallet" viewBox="0 0 32 32">
      <path fill="none" stroke="#b9c7a4" style="stroke:var(--color1, #b9c7a4)" stroke-linejoin="round" stroke-linecap="round" stroke-width="1.306" d="M23.902 18.024a2.622 2.622 0 0 0-.784 2.129c.118 1.411 1.411 2.442 2.821 2.442h2.482v1.554a4.922 4.922 0 0 1-4.911 4.911H8.516a4.922 4.922 0 0 1-4.911-4.911v-8.79a4.922 4.922 0 0 1 4.911-4.911H23.51a4.922 4.922 0 0 1 4.911 4.911v1.881h-2.638c-.731 0-1.398.287-1.881.784z"/>
      <path fill="none" stroke="#b9c7a4" style="stroke:var(--color1, #b9c7a4)" stroke-linejoin="round" stroke-linecap="round" stroke-width="1.306" d="M3.605 16.536v-5.969c0-1.554.953-2.939 2.403-3.487l10.371-3.918a2.479 2.479 0 0 1 3.074 1.172c.186.356.283.751.283 1.153v4.963M9.482 16h9.143m11.179 2.573v2.691c0 .718-.575 1.306-1.306 1.332h-2.56c-1.411 0-2.704-1.032-2.821-2.442a2.624 2.624 0 0 1 .784-2.129 2.604 2.604 0 0 1 1.881-.784h2.717a1.341 1.341 0 0 1 1.306 1.332v0z"/>
    </symbol>
    <symbol id="icon-MedalStar" viewBox="0 0 32 32">
<path stroke-linejoin="round" stroke-linecap="round" stroke-miterlimit="4" stroke-width="1.3333" d="M25.333 12c0 1.933-0.573 3.707-1.56 5.187-0.723 1.078-1.663 1.994-2.761 2.687s-2.328 1.15-3.612 1.34c-0.453 0.080-0.92 0.12-1.4 0.12s-0.947-0.040-1.4-0.12c-1.284-0.19-2.515-0.646-3.612-1.34s-2.038-1.609-2.761-2.687c-1.024-1.536-1.567-3.341-1.56-5.187 0-5.16 4.173-9.333 9.333-9.333s9.333 4.173 9.333 9.333z"></path>
<path stroke-linejoin="round" stroke-linecap="round" stroke-miterlimit="4" stroke-width="1.3333" d="M28.333 24.627l-2.2 0.52c-0.493 0.12-0.88 0.493-0.987 0.987l-0.467 1.96c-0.057 0.241-0.18 0.461-0.355 0.635s-0.395 0.297-0.636 0.354c-0.241 0.057-0.492 0.045-0.727-0.033s-0.443-0.22-0.602-0.41l-6.36-7.307-6.36 7.32c-0.159 0.19-0.367 0.332-0.602 0.41s-0.486 0.089-0.727 0.033c-0.241-0.057-0.461-0.179-0.636-0.354s-0.298-0.395-0.355-0.635l-0.467-1.96c-0.057-0.24-0.179-0.459-0.353-0.633s-0.394-0.297-0.633-0.353l-2.2-0.52c-0.231-0.055-0.442-0.171-0.613-0.335s-0.296-0.37-0.361-0.598c-0.065-0.228-0.069-0.469-0.010-0.699s0.177-0.44 0.344-0.608l5.2-5.2c0.723 1.078 1.663 1.994 2.761 2.687s2.328 1.15 3.612 1.34c0.453 0.080 0.92 0.12 1.4 0.12s0.947-0.040 1.4-0.12c2.653-0.387 4.933-1.893 6.373-4.027l5.2 5.2c0.733 0.72 0.373 1.987-0.64 2.227v0zM16.773 7.973l0.787 1.573c0.107 0.213 0.387 0.427 0.64 0.467l1.427 0.24c0.907 0.147 1.12 0.813 0.467 1.467l-1.107 1.107c-0.187 0.187-0.293 0.547-0.227 0.813l0.32 1.373c0.253 1.080-0.32 1.507-1.28 0.933l-1.333-0.787c-0.135-0.072-0.287-0.11-0.44-0.11s-0.305 0.038-0.44 0.11l-1.333 0.787c-0.96 0.56-1.533 0.147-1.28-0.933l0.32-1.373c0.053-0.253-0.040-0.627-0.227-0.813l-1.107-1.107c-0.653-0.653-0.44-1.307 0.467-1.467l1.427-0.24c0.24-0.040 0.52-0.253 0.627-0.467l0.787-1.573c0.387-0.853 1.080-0.853 1.507 0v0z"></path>
</symbol>
    <symbol id="icon-Tree" viewBox="0 0 32 32">
      <path stroke-linejoin="round" stroke-linecap="round" stroke-width="1.143" d="M21.56 13.413H10.44c-1.573 0-2.12-1.053-1.2-2.333l5.56-7.787c.653-.933 1.747-.933 2.387 0l5.56 7.787c.933 1.28.387 2.333-1.187 2.333zM16 29.333V24m7.453 0H8.56c-2.107 0-2.827-1.4-1.587-3.107l5.32-7.48h7.427l5.32 7.48C26.28 22.6 25.56 24 23.453 24z"/>
    </symbol>
    <symbol id="icon-Star-5" viewBox="0 0 32 32">
      <path fill="#f4d154" style="fill:var(--color3, #f4d154)" d="m15.333 1.263 3.592 11.056H30.55l-9.405 6.833 3.592 11.056-9.404-6.833-9.405 6.833L9.52 19.152.115 12.319H11.74l3.592-11.056z"/>
    </symbol>
    <symbol id="icon-Shop" viewBox="0 0 32 32">
      <path fill="none" stroke="#b9c7a4" style="stroke:var(--color1, #b9c7a4)" stroke-linejoin="round" stroke-linecap="round" stroke-width="1.333" d="M4.065 14.96v5.987c0 5.987 2.39 8.387 8.35 8.387h7.156c5.961 0 8.35-2.4 8.35-8.387V14.96"/>
      <path fill="none" stroke="#b9c7a4" style="stroke:var(--color1, #b9c7a4)" stroke-linejoin="round" stroke-linecap="round" stroke-width="1.333" d="M16 16c2.429 0 4.222-1.987 3.983-4.427l-.876-8.907h-6.2l-.89 8.907C11.778 14.013 13.57 16 16 16z"/>
      <path fill="none" stroke="#b9c7a4" style="stroke:var(--color1, #b9c7a4)" stroke-linejoin="round" stroke-linecap="round" stroke-width="1.333" d="M24.377 16c2.682 0 4.646-2.187 4.381-4.867l-.372-3.667c-.478-3.467-1.805-4.8-5.284-4.8h-4.049l.929 9.347c.226 2.2 2.204 3.987 4.394 3.987zm-16.82 0c2.19 0 4.169-1.787 4.381-3.987l.292-2.947.637-6.4H8.818c-3.478 0-4.806 1.333-5.284 4.8l-.358 3.667C2.911 13.813 4.875 16 7.557 16zM16 22.667c-2.217 0-3.319 1.107-3.319 3.333v3.333h6.638V26c0-2.227-1.102-3.333-3.319-3.333z"/>
    </symbol>
    <symbol id="icon-TruckFast" viewBox="0 0 32 32">
      <path fill="none" stroke="#b9c7a4" style="stroke:var(--color1, #b9c7a4)" stroke-linejoin="round" stroke-linecap="round" stroke-width="1.333" d="M16.32 18.667h1.278c1.406 0 2.556-1.2 2.556-2.667V2.667h-11.5c-1.917 0-3.591 1.107-4.459 2.733"/>
      <path fill="none" stroke="#b9c7a4" style="stroke:var(--color1, #b9c7a4)" stroke-linejoin="round" stroke-linecap="round" stroke-width="1.333" d="M3.543 22.667c0 2.213 1.712 4 3.833 4h1.278C8.654 25.2 9.804 24 11.21 24s2.556 1.2 2.556 2.667h5.111c0-1.467 1.15-2.667 2.556-2.667s2.556 1.2 2.556 2.667h1.278c2.121 0 3.833-1.787 3.833-4v-4h-3.833c-.703 0-1.278-.6-1.278-1.333v-4c0-.733.575-1.333 1.278-1.333h1.648L24.73 8.014c-.225-.408-.549-.747-.939-.983s-.833-.362-1.284-.363h-2.351v9.333c0 1.467-1.15 2.667-2.556 2.667h-1.278"/>
      <path fill="none" stroke="#b9c7a4" style="stroke:var(--color1, #b9c7a4)" stroke-linejoin="round" stroke-linecap="round" stroke-width="1.333" d="M3.543 10.667h7.667m-7.667 4h5.111m-5.111 4h2.556m5.11 10.666c.678 0 1.328-.281 1.807-.781s.748-1.178.748-1.886-.269-1.386-.748-1.886-1.129-.781-1.807-.781-1.328.281-1.807.781c-.479.5-.748 1.178-.748 1.886s.269 1.386.748 1.886 1.129.781 1.807.781v0zm10.222 0c.678 0 1.328-.281 1.807-.781s.749-1.178.749-1.886-.269-1.386-.749-1.886c-.479-.5-1.129-.781-1.807-.781s-1.328.281-1.807.781c-.479.5-.749 1.178-.749 1.886s.269 1.386.749 1.886c.479.5 1.129.781 1.807.781zM29.098 16v2.667h-3.833c-.703 0-1.278-.6-1.278-1.333v-4c0-.733.575-1.333 1.278-1.333h1.648l2.185 4z"/>
    </symbol>
  </defs>
</svg>
