<svg width="47" height="48" viewBox="0 0 47 48" fill="none" xmlns="http://www.w3.org/2000/svg">
<path d="M23.9805 28H25.8971C28.0055 28 29.7305 26.2 29.7305 24V4H12.4805C9.60546 4 7.09462 5.66 5.79129 8.1" stroke="#B9C7A4" stroke-width="2" stroke-linecap="round" stroke-linejoin="round"/>
<path d="M4.81381 34C4.81381 37.32 7.38215 40 10.5638 40H12.4805C12.4805 37.8 14.2055 36 16.3138 36C18.4221 36 20.1471 37.8 20.1471 40H27.8138C27.8138 37.8 29.5388 36 31.6471 36C33.7555 36 35.4805 37.8 35.4805 40H37.3971C40.5788 40 43.1471 37.32 43.1471 34V28H37.3971C36.343 28 35.4805 27.1 35.4805 26V20C35.4805 18.9 36.343 18 37.3971 18H39.8696L36.5921 12.02C36.2545 11.408 35.7687 10.8994 35.1834 10.5449C34.5981 10.1904 33.9339 10.0025 33.2571 10H29.7305V24C29.7305 26.2 28.0055 28 25.8971 28H23.9805" stroke="#B9C7A4" stroke-width="2" stroke-linecap="round" stroke-linejoin="round"/>
<path d="M4.81381 16H16.3138M4.81381 22H12.4805M4.81381 28H8.64715M16.3138 44C17.3305 44 18.3055 43.5786 19.0244 42.8284C19.7433 42.0783 20.1471 41.0609 20.1471 40C20.1471 38.9391 19.7433 37.9217 19.0244 37.1716C18.3055 36.4214 17.3305 36 16.3138 36C15.2971 36 14.3221 36.4214 13.6032 37.1716C12.8843 37.9217 12.4805 38.9391 12.4805 40C12.4805 41.0609 12.8843 42.0783 13.6032 42.8284C14.3221 43.5786 15.2971 44 16.3138 44V44ZM31.6471 44C32.6638 44 33.6388 43.5786 34.3577 42.8284C35.0766 42.0783 35.4805 41.0609 35.4805 40C35.4805 38.9391 35.0766 37.9217 34.3577 37.1716C33.6388 36.4214 32.6638 36 31.6471 36C30.6305 36 29.6555 36.4214 28.9366 37.1716C28.2177 37.9217 27.8138 38.9391 27.8138 40C27.8138 41.0609 28.2177 42.0783 28.9366 42.8284C29.6555 43.5786 30.6305 44 31.6471 44ZM43.1471 24V28H37.3971C36.343 28 35.4805 27.1 35.4805 26V20C35.4805 18.9 36.343 18 37.3971 18H39.8696L43.1471 24Z" stroke="#B9C7A4" stroke-width="2" stroke-linecap="round" stroke-linejoin="round"/>
</svg>
