<svg width="48" height="48" viewBox="0 0 48 48" fill="none" xmlns="http://www.w3.org/2000/svg">
<path d="M24 24C26.6522 24 29.1957 22.9464 31.0711 21.0711C32.9464 19.1957 34 16.6522 34 14C34 11.3478 32.9464 8.8043 31.0711 6.92893C29.1957 5.05357 26.6522 4 24 4C21.3478 4 18.8043 5.05357 16.9289 6.92893C15.0536 8.8043 14 11.3478 14 14C14 16.6522 15.0536 19.1957 16.9289 21.0711C18.8043 22.9464 21.3478 24 24 24V24Z" stroke="#42444C" stroke-width="2" stroke-linecap="round" stroke-linejoin="round"/>
<path d="M38.42 31.48L31.34 38.56C31.06 38.84 30.8 39.36 30.74 39.74L30.36 42.44C30.22 43.42 30.9 44.1 31.88 43.96L34.58 43.58C34.96 43.52 35.5 43.26 35.76 42.98L42.84 35.9C44.06 34.68 44.64 33.26 42.84 31.46C41.06 29.68 39.64 30.26 38.42 31.48V31.48Z" stroke="#42444C" stroke-width="2" stroke-miterlimit="10" stroke-linecap="round" stroke-linejoin="round"/>
<path d="M37.4 32.5C38 34.66 39.68 36.34 41.84 36.94" stroke="#42444C" stroke-width="2" stroke-miterlimit="10" stroke-linecap="round" stroke-linejoin="round"/>
<path d="M6.82 44C6.82 36.26 14.52 30 24 30C26.08 30 28.08 30.3 29.94 30.86" stroke="#42444C" stroke-width="2" stroke-linecap="round" stroke-linejoin="round"/>
</svg>
